<?xml version="1.0" standalone="no"?>
<!DOCTYPE svg PUBLIC "-//W3C//DTD SVG 20010904//EN"
 "http://www.w3.org/TR/2001/REC-SVG-20010904/DTD/svg10.dtd">
<svg version="1.0" xmlns="http://www.w3.org/2000/svg"
 width="150.000000pt" height="150.000000pt" viewBox="0 0 150.000000 150.000000"
 preserveAspectRatio="xMidYMid meet">

<g transform="translate(0.000000,150.000000) scale(0.100000,-0.100000)"
fill="#000000" stroke="none">
<path d="M650 1485 c-73 -21 -154 -75 -193 -131 -56 -80 -68 -125 -78 -294 -4
-85 -14 -219 -20 -297 -7 -79 -10 -146 -6 -149 4 -4 119 23 220 52 15 5 18 1
15 -22 -3 -27 -8 -29 -140 -64 -220 -59 -242 -86 -277 -360 -12 -91 -24 -177
-27 -193 l-6 -27 596 0 596 0 -5 23 c-3 12 -16 102 -30 199 -39 283 -61 307
-333 373 -61 15 -75 22 -83 43 -5 13 -8 26 -6 28 2 2 57 -10 121 -27 65 -17
119 -29 121 -27 2 2 -5 111 -16 243 -10 132 -19 261 -19 286 -1 223 -223 401
-430 344z m201 -301 c13 -14 36 -32 52 -40 26 -14 27 -17 27 -97 0 -115 -20
-167 -90 -239 -52 -54 -59 -58 -102 -58 -36 0 -53 7 -86 33 -55 43 -90 92
-107 151 -19 62 -20 185 -2 190 6 2 42 8 79 14 38 6 96 24 130 40 35 17 66 31
69 31 3 1 16 -11 30 -25z m-79 -477 c24 6 43 11 44 10 1 -1 4 -26 7 -55 6 -47
4 -54 -18 -68 -62 -40 -173 -15 -167 37 10 89 9 87 52 75 29 -7 52 -7 82 1z
m188 -331 c0 -18 -6 -25 -22 -28 -19 -2 -24 -12 -31 -53 -4 -27 -8 -59 -8 -70
0 -11 4 -42 8 -70 7 -41 12 -51 31 -53 16 -3 22 -10 22 -28 0 -19 -5 -24 -27
-24 -40 0 -73 36 -73 81 0 50 -8 69 -31 69 -29 0 -26 48 4 52 19 3 22 10 25
55 2 42 8 56 29 73 37 29 73 27 73 -4z m120 6 c15 -12 24 -33 28 -72 6 -47 10
-55 30 -58 16 -2 22 -10 22 -27 0 -17 -6 -25 -22 -27 -20 -3 -24 -11 -28 -57
-6 -59 -33 -91 -76 -91 -34 0 -35 47 -1 52 19 3 23 11 29 58 10 69 10 68 3
110 -12 73 -15 80 -35 80 -15 0 -20 7 -20 25 0 20 5 25 24 25 13 0 34 -8 46
-18z"/>
</g>
</svg>
